<svg xmlns="http://www.w3.org/2000/svg" width="161.3" height="57.3">
  <path d="m39 420 1134-2c15 0 30 3 30-31l-2-374H10v375c0 17 2 32 29 32" style="fill:#a7b1a6;fill-opacity:1;fill-rule:nonzero;stroke:none" transform="matrix(.13333333 0 0 -.13333333 0 57)"/>
  <path d="M350 229a136 136 0 0 0-272 0 136 136 0 0 0 272 0" style="fill:#fff;fill-opacity:1;fill-rule:nonzero;stroke:none" transform="matrix(.13333333 0 0 -.13333333 0 57)"/>
  <path d="M325 340c30-30 45-67 45-111s-15-80-45-110c-31-31-68-46-111-46s-79 15-110 46-46 67-46 110 15 80 46 111c30 31 66 46 110 46 43 0 80-15 111-46zm-201-20c-25-26-38-56-38-91 0-34 12-64 38-90 25-25 55-38 90-38s65 13 91 39c25 23 37 53 37 89s-12 66-37 91-55 38-91 38c-35 0-65-13-90-38zm67-76c-3 9-9 13-17 13-14 0-21-9-21-28 0-18 7-27 21-27 9 0 15 4 19 13l20-10c-10-16-23-24-41-24-15 0-26 4-34 13-9 8-13 20-13 35s4 27 13 36c9 8 20 13 33 13 19 0 33-8 41-23zm90 0c-4 9-9 13-17 13-14 0-21-9-21-28 0-18 7-27 21-27 9 0 16 4 19 13l20-10c-9-16-23-24-41-24-14 0-25 4-34 13-8 8-12 20-12 35s4 27 12 36c9 8 20 13 33 13 19 0 33-8 41-23l-21-11" style="fill:#100f0d;fill-opacity:1;fill-rule:nonzero;stroke:none" transform="matrix(.13333333 0 0 -.13333333 0 57)"/>
  <path d="M1183 425H27c-12 0-22-10-22-22V10c0-3 2-5 5-5h1190c3 0 5 2 5 5v393c0 12-10 22-22 22ZM27 415h1156c6 0 12-6 12-12V130H369a178 178 0 0 0-311 0H15v273c0 6 6 12 12 12" style="fill:#100f0d;fill-opacity:1;fill-rule:nonzero;stroke:none" transform="matrix(.13333333 0 0 -.13333333 0 57)"/>
  <path d="M868 48c0-2 2-3 3-4l4-2a22 22 0 0 1 10-1l4 2 4 2 1 4-2 5-4 2-7 2a169 169 0 0 0-14 5l-6 3-5 5-1 8c0 4 0 6 2 9l5 6 8 4 9 1 10-1 9-4a19 19 0 0 0 8-16h-14l-2 5-2 3-4 1a24 24 0 0 1-9 0l-3-1-2-2-1-4v-3l3-2 6-2a763 763 0 0 1 22-7l6-6 2-9-2-8-5-7c-2-2-5-4-9-5l-11-1-11 1c-4 1-7 2-9 4a21 21 0 0 0-9 18h14l2-5M950 98l24-67h-15l-5 15h-24l-6-15h-14l25 67zm1-41-9 24-9-24h18M605 98l9-1 6-3 5-5 1-8-2-8-7-6c4-1 7-3 9-6s3-6 3-10 0-7-2-9c-1-3-3-5-5-6l-7-4-9-1h-32v67h31zm-2-27c3 0 5 0 7 2l2 6-1 3-2 3-3 1h-18V71Zm1-28h4l3 1 3 3 1 4c0 4-1 6-3 8l-8 2h-16V43h16M632 98h16l16-27 15 27h16l-24-41V31h-15v26l-24 41M1029 275a106 106 0 0 0-212 0 106 106 0 0 0 212 0" style="fill:#fff;fill-opacity:1;fill-rule:nonzero;stroke:none" transform="matrix(.13333333 0 0 -.13333333 0 57)"/>
  <path d="M922 391c-32 0-59-11-81-33-23-24-34-51-34-83s11-59 34-82a115 115 0 0 1 165 0c22 23 33 50 33 82 0 33-12 60-34 83-23 22-50 33-83 33zm1-21c26 0 48-9 67-28 18-18 28-40 28-67 0-26-9-49-28-66a93 93 0 0 0-67-29c-26 0-49 10-67 29a91 91 0 0 0-28 66c0 26 9 48 28 67 18 19 40 28 67 28" style="fill:#100f0d;fill-opacity:1;fill-rule:nonzero;stroke:none" transform="matrix(.13333333 0 0 -.13333333 0 57)"/>
  <path d="M871 292c5 29 25 44 51 44 37 0 60-27 60-62s-24-62-61-62c-25 0-47 15-51 45h29c1-16 11-21 26-21 16 0 27 15 27 39s-9 37-27 37c-12 0-23-5-26-20h9l-23-23-23 23h9" style="fill:#100f0d;fill-opacity:1;fill-rule:nonzero;stroke:none" transform="matrix(.13333333 0 0 -.13333333 0 57)"/>
  <path d="M639 380a107 107 0 1 0 0-215 107 107 0 0 0 0 215" style="fill:#fff;fill-opacity:1;fill-rule:nonzero;stroke:none" transform="matrix(.13333333 0 0 -.13333333 0 57)"/>
  <path d="M670 304c0 4-4 7-8 7h-47c-4 0-8-3-8-7v-48h13v-56h36v56h14v48M638 350a16 16 0 1 0 0-32 16 16 0 0 0 0 32" style="fill:#100f0d;fill-opacity:1;fill-rule:nonzero;stroke:none" transform="matrix(.13333333 0 0 -.13333333 0 57)"/>
  <path d="M638 391c-32 0-59-11-81-33-23-24-34-51-34-83 0-31 11-59 34-82a114 114 0 0 1 165 0c21 23 32 50 32 82 0 33-11 60-33 83-23 22-50 33-83 33zm1-21c26 0 48-9 67-28 18-18 28-40 28-67 0-26-10-49-28-66a93 93 0 0 0-67-29c-26 0-49 10-67 29a91 91 0 0 0-29 66c0 26 10 48 29 67 18 19 40 28 67 28" style="fill:#100f0d;fill-opacity:1;fill-rule:nonzero;stroke:none" transform="matrix(.13333333 0 0 -.13333333 0 57)"/>
</svg>
